<?xml version="1.0" encoding="UTF-8" standalone="no"?>
<!DOCTYPE svg PUBLIC "-//W3C//DTD SVG 1.1//EN"
 "http://www.w3.org/Graphics/SVG/1.1/DTD/svg11.dtd">
<!-- Generated by graphviz version 2.47.0 (20210316.0004)
 -->
<!-- Title: dependencies Pages: 1 -->
<svg width="5688pt" height="284pt"
 viewBox="0.00 0.00 5688.00 284.00" xmlns="http://www.w3.org/2000/svg" xmlns:xlink="http://www.w3.org/1999/xlink">
<g id="graph0" class="graph" transform="scale(1 1) rotate(0) translate(4 280)">
<title>dependencies</title>
<polygon fill="white" stroke="transparent" points="-4,4 -4,-280 5684,-280 5684,4 -4,4"/>
<text text-anchor="start" x="2819.01" y="-42.4" font-family="Times-12" font-weight="bold" font-size="14.00">Legend</text>
<polygon fill="#ffffb3" stroke="transparent" points="2606,-10 2606,-30 2626,-30 2626,-10 2606,-10"/>
<text text-anchor="start" x="2629.63" y="-15.4" font-family="Times-12" font-size="14.00"> &#160;Declarations</text>
<polygon fill="#8dd3c7" stroke="transparent" points="2719,-10 2719,-30 2739,-30 2739,-10 2719,-10"/>
<text text-anchor="start" x="2742.73" y="-15.4" font-family="Times-12" font-size="14.00"> &#160;Module</text>
<polygon fill="#80b1d3" stroke="transparent" points="2805,-10 2805,-30 2825,-30 2825,-10 2805,-10"/>
<text text-anchor="start" x="2828.78" y="-15.4" font-family="Times-12" font-size="14.00"> &#160;Bootstrap</text>
<polygon fill="#fdb462" stroke="transparent" points="2902,-10 2902,-30 2922,-30 2922,-10 2902,-10"/>
<text text-anchor="start" x="2925.67" y="-15.4" font-family="Times-12" font-size="14.00"> &#160;Providers</text>
<polygon fill="#fb8072" stroke="transparent" points="2998,-10 2998,-30 3018,-30 3018,-10 2998,-10"/>
<text text-anchor="start" x="3021.73" y="-15.4" font-family="Times-12" font-size="14.00"> &#160;Exports</text>
<g id="clust1" class="cluster">
<title>cluster_AppModule</title>
<polygon fill="none" stroke="black" stroke-dasharray="1,5" points="8,-70 8,-268 5672,-268 5672,-70 8,-70"/>
</g>
<g id="clust36" class="cluster">
<title>cluster_AppModule_imports</title>
<polygon fill="none" stroke="black" points="5388,-78 5388,-130 5664,-130 5664,-78 5388,-78"/>
</g>
<g id="clust38" class="cluster">
<title>cluster_AppModule_bootstrap</title>
<polygon fill="none" stroke="black" points="2882,-208 2882,-260 3006,-260 3006,-208 2882,-208"/>
</g>
<g id="clust2" class="cluster">
<title>cluster_AppModule_declarations</title>
<polygon fill="none" stroke="black" points="16,-78 16,-130 5380,-130 5380,-78 16,-78"/>
</g>
<!-- AboutUsComponent -->
<g id="node1" class="node">
<title>AboutUsComponent</title>
<polygon fill="#ffffb3" stroke="black" points="5371.88,-122 5240.12,-122 5240.12,-86 5371.88,-86 5371.88,-122"/>
<text text-anchor="middle" x="5306" y="-99.8" font-family="Times,serif" font-size="14.00">AboutUsComponent</text>
</g>
<!-- AppModule -->
<g id="node34" class="node">
<title>AppModule</title>
<polygon fill="#8dd3c7" stroke="black" points="2985.66,-187 2982.66,-191 2961.66,-191 2958.66,-187 2902.34,-187 2902.34,-151 2985.66,-151 2985.66,-187"/>
<text text-anchor="middle" x="2944" y="-164.8" font-family="Times,serif" font-size="14.00">AppModule</text>
</g>
<!-- AboutUsComponent&#45;&gt;AppModule -->
<g id="edge1" class="edge">
<title>AboutUsComponent&#45;&gt;AppModule</title>
<path fill="none" stroke="black" d="M5306,-122.25C5306,-145.02 5306,-181 5306,-181 5306,-181 2995.75,-181 2995.75,-181"/>
<polygon fill="black" stroke="black" points="2995.75,-177.5 2985.75,-181 2995.75,-184.5 2995.75,-177.5"/>
</g>
<!-- AmlPolicyComponent -->
<g id="node2" class="node">
<title>AmlPolicyComponent</title>
<polygon fill="#ffffb3" stroke="black" points="5222,-122 5080,-122 5080,-86 5222,-86 5222,-122"/>
<text text-anchor="middle" x="5151" y="-99.8" font-family="Times,serif" font-size="14.00">AmlPolicyComponent</text>
</g>
<!-- AmlPolicyComponent&#45;&gt;AppModule -->
<g id="edge2" class="edge">
<title>AmlPolicyComponent&#45;&gt;AppModule</title>
<path fill="none" stroke="black" d="M5151,-122.16C5151,-144.35 5151,-179 5151,-179 5151,-179 2996.12,-179 2996.12,-179"/>
<polygon fill="black" stroke="black" points="2996.12,-175.5 2986.12,-179 2996.12,-182.5 2996.12,-175.5"/>
</g>
<!-- AppComponent -->
<g id="node3" class="node">
<title>AppComponent</title>
<polygon fill="#ffffb3" stroke="black" points="5061.94,-122 4956.06,-122 4956.06,-86 5061.94,-86 5061.94,-122"/>
<text text-anchor="middle" x="5009" y="-99.8" font-family="Times,serif" font-size="14.00">AppComponent</text>
</g>
<!-- AppComponent&#45;&gt;AppModule -->
<g id="edge3" class="edge">
<title>AppComponent&#45;&gt;AppModule</title>
<path fill="none" stroke="black" d="M5009,-122.04C5009,-143.66 5009,-177 5009,-177 5009,-177 2995.72,-177 2995.72,-177"/>
<polygon fill="black" stroke="black" points="2995.72,-173.5 2985.72,-177 2995.72,-180.5 2995.72,-173.5"/>
</g>
<!-- CampaignComponent -->
<g id="node4" class="node">
<title>CampaignComponent</title>
<polygon fill="#ffffb3" stroke="black" points="4938.38,-122 4799.62,-122 4799.62,-86 4938.38,-86 4938.38,-122"/>
<text text-anchor="middle" x="4869" y="-99.8" font-family="Times,serif" font-size="14.00">CampaignComponent</text>
</g>
<!-- CampaignComponent&#45;&gt;AppModule -->
<g id="edge4" class="edge">
<title>CampaignComponent&#45;&gt;AppModule</title>
<path fill="none" stroke="black" d="M4869,-122.28C4869,-143.32 4869,-175 4869,-175 4869,-175 2996,-175 2996,-175"/>
<polygon fill="black" stroke="black" points="2996,-171.5 2986,-175 2996,-178.5 2996,-171.5"/>
</g>
<!-- CancellationPolicyComponent -->
<g id="node5" class="node">
<title>CancellationPolicyComponent</title>
<polygon fill="#ffffb3" stroke="black" points="4781.87,-122 4594.13,-122 4594.13,-86 4781.87,-86 4781.87,-122"/>
<text text-anchor="middle" x="4688" y="-99.8" font-family="Times,serif" font-size="14.00">CancellationPolicyComponent</text>
</g>
<!-- CancellationPolicyComponent&#45;&gt;AppModule -->
<g id="edge5" class="edge">
<title>CancellationPolicyComponent&#45;&gt;AppModule</title>
<path fill="none" stroke="black" d="M4688,-122.13C4688,-142.57 4688,-173 4688,-173 4688,-173 2995.82,-173 2995.82,-173"/>
<polygon fill="black" stroke="black" points="2995.82,-169.5 2985.82,-173 2995.82,-176.5 2995.82,-169.5"/>
</g>
<!-- ContactUsComponent -->
<g id="node6" class="node">
<title>ContactUsComponent</title>
<polygon fill="#ffffb3" stroke="black" points="4576.43,-122 4435.57,-122 4435.57,-86 4576.43,-86 4576.43,-122"/>
<text text-anchor="middle" x="4506" y="-99.8" font-family="Times,serif" font-size="14.00">ContactUsComponent</text>
</g>
<!-- ContactUsComponent&#45;&gt;AppModule -->
<g id="edge6" class="edge">
<title>ContactUsComponent&#45;&gt;AppModule</title>
<path fill="none" stroke="black" d="M4506,-122.31C4506,-142.15 4506,-171 4506,-171 4506,-171 2995.78,-171 2995.78,-171"/>
<polygon fill="black" stroke="black" points="2995.78,-167.5 2985.78,-171 2995.78,-174.5 2995.78,-167.5"/>
</g>
<!-- DemoComponent -->
<g id="node7" class="node">
<title>DemoComponent</title>
<polygon fill="#ffffb3" stroke="black" points="4417.55,-122 4302.45,-122 4302.45,-86 4417.55,-86 4417.55,-122"/>
<text text-anchor="middle" x="4360" y="-99.8" font-family="Times,serif" font-size="14.00">DemoComponent</text>
</g>
<!-- DemoComponent&#45;&gt;AppModule -->
<g id="edge7" class="edge">
<title>DemoComponent&#45;&gt;AppModule</title>
<path fill="none" stroke="black" d="M4360,-122.11C4360,-141.34 4360,-169 4360,-169 4360,-169 2995.99,-169 2995.99,-169"/>
<polygon fill="black" stroke="black" points="2995.99,-165.5 2985.99,-169 2995.99,-172.5 2995.99,-165.5"/>
</g>
<!-- DonateNowComponent -->
<g id="node8" class="node">
<title>DonateNowComponent</title>
<polygon fill="#ffffb3" stroke="black" points="4284.47,-122 4135.53,-122 4135.53,-86 4284.47,-86 4284.47,-122"/>
<text text-anchor="middle" x="4210" y="-99.8" font-family="Times,serif" font-size="14.00">DonateNowComponent</text>
</g>
<!-- DonateNowComponent&#45;&gt;AppModule -->
<g id="edge8" class="edge">
<title>DonateNowComponent&#45;&gt;AppModule</title>
<path fill="none" stroke="black" d="M4210,-122.22C4210,-140.83 4210,-167 4210,-167 4210,-167 2995.76,-167 2995.76,-167"/>
<polygon fill="black" stroke="black" points="2995.76,-163.5 2985.76,-167 2995.76,-170.5 2995.76,-163.5"/>
</g>
<!-- DonateUserComponent -->
<g id="node9" class="node">
<title>DonateUserComponent</title>
<polygon fill="#ffffb3" stroke="black" points="4117.19,-122 3968.81,-122 3968.81,-86 4117.19,-86 4117.19,-122"/>
<text text-anchor="middle" x="4043" y="-99.8" font-family="Times,serif" font-size="14.00">DonateUserComponent</text>
</g>
<!-- DonateUserComponent&#45;&gt;AppModule -->
<g id="edge9" class="edge">
<title>DonateUserComponent&#45;&gt;AppModule</title>
<path fill="none" stroke="black" d="M4043,-122.3C4043,-140.27 4043,-165 4043,-165 4043,-165 2995.74,-165 2995.74,-165"/>
<polygon fill="black" stroke="black" points="2995.74,-161.5 2985.74,-165 2995.74,-168.5 2995.74,-161.5"/>
</g>
<!-- DragDirective -->
<g id="node10" class="node">
<title>DragDirective</title>
<polygon fill="#ffffb3" stroke="black" points="3951.06,-122 3854.94,-122 3854.94,-86 3951.06,-86 3951.06,-122"/>
<text text-anchor="middle" x="3903" y="-99.8" font-family="Times,serif" font-size="14.00">DragDirective</text>
</g>
<!-- DragDirective&#45;&gt;AppModule -->
<g id="edge10" class="edge">
<title>DragDirective&#45;&gt;AppModule</title>
<path fill="none" stroke="black" d="M3903,-122.02C3903,-139.37 3903,-163 3903,-163 3903,-163 2995.82,-163 2995.82,-163"/>
<polygon fill="black" stroke="black" points="2995.82,-159.5 2985.82,-163 2995.82,-166.5 2995.82,-159.5"/>
</g>
<!-- EditFundraiserComponent -->
<g id="node11" class="node">
<title>EditFundraiserComponent</title>
<polygon fill="#ffffb3" stroke="black" points="3837.04,-122 3672.96,-122 3672.96,-86 3837.04,-86 3837.04,-122"/>
<text text-anchor="middle" x="3755" y="-99.8" font-family="Times,serif" font-size="14.00">EditFundraiserComponent</text>
</g>
<!-- EditFundraiserComponent&#45;&gt;AppModule -->
<g id="edge11" class="edge">
<title>EditFundraiserComponent&#45;&gt;AppModule</title>
<path fill="none" stroke="black" d="M3755,-122.04C3755,-138.73 3755,-161 3755,-161 3755,-161 2995.9,-161 2995.9,-161"/>
<polygon fill="black" stroke="black" points="2995.9,-157.5 2985.9,-161 2995.9,-164.5 2995.9,-157.5"/>
</g>
<!-- EditLoanComponent -->
<g id="node12" class="node">
<title>EditLoanComponent</title>
<polygon fill="#ffffb3" stroke="black" points="3654.93,-122 3521.07,-122 3521.07,-86 3654.93,-86 3654.93,-122"/>
<text text-anchor="middle" x="3588" y="-99.8" font-family="Times,serif" font-size="14.00">EditLoanComponent</text>
</g>
<!-- EditLoanComponent&#45;&gt;AppModule -->
<g id="edge12" class="edge">
<title>EditLoanComponent&#45;&gt;AppModule</title>
<path fill="none" stroke="black" d="M3588,-122.01C3588,-138.05 3588,-159 3588,-159 3588,-159 2995.76,-159 2995.76,-159"/>
<polygon fill="black" stroke="black" points="2995.76,-155.5 2985.76,-159 2995.76,-162.5 2995.76,-155.5"/>
</g>
<!-- FooterComponent -->
<g id="node13" class="node">
<title>FooterComponent</title>
<polygon fill="#ffffb3" stroke="black" points="3502.88,-122 3385.12,-122 3385.12,-86 3502.88,-86 3502.88,-122"/>
<text text-anchor="middle" x="3444" y="-99.8" font-family="Times,serif" font-size="14.00">FooterComponent</text>
</g>
<!-- FooterComponent&#45;&gt;AppModule -->
<g id="edge13" class="edge">
<title>FooterComponent&#45;&gt;AppModule</title>
<path fill="none" stroke="black" d="M3444,-122.24C3444,-137.57 3444,-157 3444,-157 3444,-157 2995.77,-157 2995.77,-157"/>
<polygon fill="black" stroke="black" points="2995.77,-153.5 2985.77,-157 2995.77,-160.5 2995.77,-153.5"/>
</g>
<!-- FundRaiserComponent -->
<g id="node14" class="node">
<title>FundRaiserComponent</title>
<polygon fill="#ffffb3" stroke="black" points="3366.88,-122 3221.12,-122 3221.12,-86 3366.88,-86 3366.88,-122"/>
<text text-anchor="middle" x="3294" y="-99.8" font-family="Times,serif" font-size="14.00">FundRaiserComponent</text>
</g>
<!-- FundRaiserComponent&#45;&gt;AppModule -->
<g id="edge14" class="edge">
<title>FundRaiserComponent&#45;&gt;AppModule</title>
<path fill="none" stroke="black" d="M3294,-122.12C3294,-136.78 3294,-155 3294,-155 3294,-155 2995.87,-155 2995.87,-155"/>
<polygon fill="black" stroke="black" points="2995.87,-151.5 2985.87,-155 2995.87,-158.5 2995.87,-151.5"/>
</g>
<!-- FundRaiserDetailComponent -->
<g id="node15" class="node">
<title>FundRaiserDetailComponent</title>
<polygon fill="#ffffb3" stroke="black" points="3203.08,-122 3022.92,-122 3022.92,-86 3203.08,-86 3203.08,-122"/>
<text text-anchor="middle" x="3113" y="-99.8" font-family="Times,serif" font-size="14.00">FundRaiserDetailComponent</text>
</g>
<!-- FundRaiserDetailComponent&#45;&gt;AppModule -->
<g id="edge15" class="edge">
<title>FundRaiserDetailComponent&#45;&gt;AppModule</title>
<path fill="none" stroke="black" d="M3113,-122.25C3113,-136.18 3113,-153 3113,-153 3113,-153 2995.78,-153 2995.78,-153"/>
<polygon fill="black" stroke="black" points="2995.78,-149.5 2985.78,-153 2995.78,-156.5 2995.78,-149.5"/>
</g>
<!-- HeaderComponent -->
<g id="node16" class="node">
<title>HeaderComponent</title>
<polygon fill="#ffffb3" stroke="black" points="3004.74,-122 2883.26,-122 2883.26,-86 3004.74,-86 3004.74,-122"/>
<text text-anchor="middle" x="2944" y="-99.8" font-family="Times,serif" font-size="14.00">HeaderComponent</text>
</g>
<!-- HeaderComponent&#45;&gt;AppModule -->
<g id="edge16" class="edge">
<title>HeaderComponent&#45;&gt;AppModule</title>
<path fill="none" stroke="black" d="M2944,-122.11C2944,-122.11 2944,-140.99 2944,-140.99"/>
<polygon fill="black" stroke="black" points="2940.5,-140.99 2944,-150.99 2947.5,-140.99 2940.5,-140.99"/>
</g>
<!-- HomeComponent -->
<g id="node17" class="node">
<title>HomeComponent</title>
<polygon fill="#ffffb3" stroke="black" points="2864.55,-122 2749.45,-122 2749.45,-86 2864.55,-86 2864.55,-122"/>
<text text-anchor="middle" x="2807" y="-99.8" font-family="Times,serif" font-size="14.00">HomeComponent</text>
</g>
<!-- HomeComponent&#45;&gt;AppModule -->
<g id="edge17" class="edge">
<title>HomeComponent&#45;&gt;AppModule</title>
<path fill="none" stroke="black" d="M2807,-122.25C2807,-136.18 2807,-153 2807,-153 2807,-153 2892.15,-153 2892.15,-153"/>
<polygon fill="black" stroke="black" points="2892.15,-156.5 2902.15,-153 2892.15,-149.5 2892.15,-156.5"/>
</g>
<!-- HowItWorksComponent -->
<g id="node18" class="node">
<title>HowItWorksComponent</title>
<polygon fill="#ffffb3" stroke="black" points="2731.42,-122 2576.58,-122 2576.58,-86 2731.42,-86 2731.42,-122"/>
<text text-anchor="middle" x="2654" y="-99.8" font-family="Times,serif" font-size="14.00">HowItWorksComponent</text>
</g>
<!-- HowItWorksComponent&#45;&gt;AppModule -->
<g id="edge18" class="edge">
<title>HowItWorksComponent&#45;&gt;AppModule</title>
<path fill="none" stroke="black" d="M2654,-122.12C2654,-136.78 2654,-155 2654,-155 2654,-155 2892.14,-155 2892.14,-155"/>
<polygon fill="black" stroke="black" points="2892.14,-158.5 2902.14,-155 2892.14,-151.5 2892.14,-158.5"/>
</g>
<!-- LendComponent -->
<g id="node19" class="node">
<title>LendComponent</title>
<polygon fill="#ffffb3" stroke="black" points="2559.1,-122 2448.9,-122 2448.9,-86 2559.1,-86 2559.1,-122"/>
<text text-anchor="middle" x="2504" y="-99.8" font-family="Times,serif" font-size="14.00">LendComponent</text>
</g>
<!-- LendComponent&#45;&gt;AppModule -->
<g id="edge19" class="edge">
<title>LendComponent&#45;&gt;AppModule</title>
<path fill="none" stroke="black" d="M2504,-122.24C2504,-137.57 2504,-157 2504,-157 2504,-157 2892.21,-157 2892.21,-157"/>
<polygon fill="black" stroke="black" points="2892.21,-160.5 2902.21,-157 2892.21,-153.5 2892.21,-160.5"/>
</g>
<!-- LoanDetailsComponent -->
<g id="node20" class="node">
<title>LoanDetailsComponent</title>
<polygon fill="#ffffb3" stroke="black" points="2430.75,-122 2281.25,-122 2281.25,-86 2430.75,-86 2430.75,-122"/>
<text text-anchor="middle" x="2356" y="-99.8" font-family="Times,serif" font-size="14.00">LoanDetailsComponent</text>
</g>
<!-- LoanDetailsComponent&#45;&gt;AppModule -->
<g id="edge20" class="edge">
<title>LoanDetailsComponent&#45;&gt;AppModule</title>
<path fill="none" stroke="black" d="M2356,-122.01C2356,-138.05 2356,-159 2356,-159 2356,-159 2892.18,-159 2892.18,-159"/>
<polygon fill="black" stroke="black" points="2892.18,-162.5 2902.18,-159 2892.18,-155.5 2892.18,-162.5"/>
</g>
<!-- OurCampaignsComponent -->
<g id="node21" class="node">
<title>OurCampaignsComponent</title>
<polygon fill="#ffffb3" stroke="black" points="2263.09,-122 2096.91,-122 2096.91,-86 2263.09,-86 2263.09,-122"/>
<text text-anchor="middle" x="2180" y="-99.8" font-family="Times,serif" font-size="14.00">OurCampaignsComponent</text>
</g>
<!-- OurCampaignsComponent&#45;&gt;AppModule -->
<g id="edge21" class="edge">
<title>OurCampaignsComponent&#45;&gt;AppModule</title>
<path fill="none" stroke="black" d="M2180,-122.04C2180,-138.73 2180,-161 2180,-161 2180,-161 2892.11,-161 2892.11,-161"/>
<polygon fill="black" stroke="black" points="2892.11,-164.5 2902.11,-161 2892.11,-157.5 2892.11,-164.5"/>
</g>
<!-- PageNotFoundComponent -->
<g id="node22" class="node">
<title>PageNotFoundComponent</title>
<polygon fill="#ffffb3" stroke="black" points="2078.82,-122 1913.18,-122 1913.18,-86 2078.82,-86 2078.82,-122"/>
<text text-anchor="middle" x="1996" y="-99.8" font-family="Times,serif" font-size="14.00">PageNotFoundComponent</text>
</g>
<!-- PageNotFoundComponent&#45;&gt;AppModule -->
<g id="edge22" class="edge">
<title>PageNotFoundComponent&#45;&gt;AppModule</title>
<path fill="none" stroke="black" d="M1996,-122.02C1996,-139.37 1996,-163 1996,-163 1996,-163 2892.04,-163 2892.04,-163"/>
<polygon fill="black" stroke="black" points="2892.04,-166.5 2902.04,-163 2892.04,-159.5 2892.04,-166.5"/>
</g>
<!-- PaytmComponent -->
<g id="node23" class="node">
<title>PaytmComponent</title>
<polygon fill="#ffffb3" stroke="black" points="1895.61,-122 1778.39,-122 1778.39,-86 1895.61,-86 1895.61,-122"/>
<text text-anchor="middle" x="1837" y="-99.8" font-family="Times,serif" font-size="14.00">PaytmComponent</text>
</g>
<!-- PaytmComponent&#45;&gt;AppModule -->
<g id="edge23" class="edge">
<title>PaytmComponent&#45;&gt;AppModule</title>
<path fill="none" stroke="black" d="M1837,-122.3C1837,-140.27 1837,-165 1837,-165 1837,-165 2892.29,-165 2892.29,-165"/>
<polygon fill="black" stroke="black" points="2892.29,-168.5 2902.29,-165 2892.29,-161.5 2892.29,-168.5"/>
</g>
<!-- PaytmPaymentComponent -->
<g id="node24" class="node">
<title>PaytmPaymentComponent</title>
<polygon fill="#ffffb3" stroke="black" points="1760.1,-122 1593.9,-122 1593.9,-86 1760.1,-86 1760.1,-122"/>
<text text-anchor="middle" x="1677" y="-99.8" font-family="Times,serif" font-size="14.00">PaytmPaymentComponent</text>
</g>
<!-- PaytmPaymentComponent&#45;&gt;AppModule -->
<g id="edge24" class="edge">
<title>PaytmPaymentComponent&#45;&gt;AppModule</title>
<path fill="none" stroke="black" d="M1677,-122.22C1677,-140.83 1677,-167 1677,-167 1677,-167 2892.21,-167 2892.21,-167"/>
<polygon fill="black" stroke="black" points="2892.21,-170.5 2902.21,-167 2892.21,-163.5 2892.21,-170.5"/>
</g>
<!-- PrivacyPolicyComponent -->
<g id="node25" class="node">
<title>PrivacyPolicyComponent</title>
<polygon fill="#ffffb3" stroke="black" points="1575.87,-122 1416.13,-122 1416.13,-86 1575.87,-86 1575.87,-122"/>
<text text-anchor="middle" x="1496" y="-99.8" font-family="Times,serif" font-size="14.00">PrivacyPolicyComponent</text>
</g>
<!-- PrivacyPolicyComponent&#45;&gt;AppModule -->
<g id="edge25" class="edge">
<title>PrivacyPolicyComponent&#45;&gt;AppModule</title>
<path fill="none" stroke="black" d="M1496,-122.11C1496,-141.34 1496,-169 1496,-169 1496,-169 2892.23,-169 2892.23,-169"/>
<polygon fill="black" stroke="black" points="2892.23,-172.5 2902.23,-169 2892.23,-165.5 2892.23,-172.5"/>
</g>
<!-- ProfileComponent -->
<g id="node26" class="node">
<title>ProfileComponent</title>
<polygon fill="#ffffb3" stroke="black" points="1397.93,-122 1278.07,-122 1278.07,-86 1397.93,-86 1397.93,-122"/>
<text text-anchor="middle" x="1338" y="-99.8" font-family="Times,serif" font-size="14.00">ProfileComponent</text>
</g>
<!-- ProfileComponent&#45;&gt;AppModule -->
<g id="edge26" class="edge">
<title>ProfileComponent&#45;&gt;AppModule</title>
<path fill="none" stroke="black" d="M1338,-122.31C1338,-142.15 1338,-171 1338,-171 1338,-171 2892.28,-171 2892.28,-171"/>
<polygon fill="black" stroke="black" points="2892.28,-174.5 2902.28,-171 2892.28,-167.5 2892.28,-174.5"/>
</g>
<!-- SearchListComponent -->
<g id="node27" class="node">
<title>SearchListComponent</title>
<polygon fill="#ffffb3" stroke="black" points="1260.7,-122 1119.3,-122 1119.3,-86 1260.7,-86 1260.7,-122"/>
<text text-anchor="middle" x="1190" y="-99.8" font-family="Times,serif" font-size="14.00">SearchListComponent</text>
</g>
<!-- SearchListComponent&#45;&gt;AppModule -->
<g id="edge27" class="edge">
<title>SearchListComponent&#45;&gt;AppModule</title>
<path fill="none" stroke="black" d="M1190,-122.13C1190,-142.57 1190,-173 1190,-173 1190,-173 2891.94,-173 2891.94,-173"/>
<polygon fill="black" stroke="black" points="2891.94,-176.5 2901.94,-173 2891.94,-169.5 2891.94,-176.5"/>
</g>
<!-- SignUpComponent -->
<g id="node28" class="node">
<title>SignUpComponent</title>
<polygon fill="#ffffb3" stroke="black" points="1101.11,-122 976.89,-122 976.89,-86 1101.11,-86 1101.11,-122"/>
<text text-anchor="middle" x="1039" y="-99.8" font-family="Times,serif" font-size="14.00">SignUpComponent</text>
</g>
<!-- SignUpComponent&#45;&gt;AppModule -->
<g id="edge28" class="edge">
<title>SignUpComponent&#45;&gt;AppModule</title>
<path fill="none" stroke="black" d="M1039,-122.28C1039,-143.32 1039,-175 1039,-175 1039,-175 2891.99,-175 2891.99,-175"/>
<polygon fill="black" stroke="black" points="2891.99,-178.5 2901.99,-175 2891.99,-171.5 2891.99,-178.5"/>
</g>
<!-- StartFundraiserComponent -->
<g id="node29" class="node">
<title>StartFundraiserComponent</title>
<polygon fill="#ffffb3" stroke="black" points="958.64,-122 791.36,-122 791.36,-86 958.64,-86 958.64,-122"/>
<text text-anchor="middle" x="875" y="-99.8" font-family="Times,serif" font-size="14.00">StartFundraiserComponent</text>
</g>
<!-- StartFundraiserComponent&#45;&gt;AppModule -->
<g id="edge29" class="edge">
<title>StartFundraiserComponent&#45;&gt;AppModule</title>
<path fill="none" stroke="black" d="M875,-122.04C875,-143.66 875,-177 875,-177 875,-177 2892.2,-177 2892.2,-177"/>
<polygon fill="black" stroke="black" points="2892.2,-180.5 2902.2,-177 2892.2,-173.5 2892.2,-180.5"/>
</g>
<!-- StatisticsComponent -->
<g id="node30" class="node">
<title>StatisticsComponent</title>
<polygon fill="#ffffb3" stroke="black" points="772.89,-122 641.11,-122 641.11,-86 772.89,-86 772.89,-122"/>
<text text-anchor="middle" x="707" y="-99.8" font-family="Times,serif" font-size="14.00">StatisticsComponent</text>
</g>
<!-- StatisticsComponent&#45;&gt;AppModule -->
<g id="edge30" class="edge">
<title>StatisticsComponent&#45;&gt;AppModule</title>
<path fill="none" stroke="black" d="M707,-122.16C707,-144.35 707,-179 707,-179 707,-179 2892.29,-179 2892.29,-179"/>
<polygon fill="black" stroke="black" points="2892.29,-182.5 2902.29,-179 2892.29,-175.5 2892.29,-182.5"/>
</g>
<!-- TermsAndConditionsComponent -->
<g id="node31" class="node">
<title>TermsAndConditionsComponent</title>
<polygon fill="#ffffb3" stroke="black" points="623.16,-122 420.84,-122 420.84,-86 623.16,-86 623.16,-122"/>
<text text-anchor="middle" x="522" y="-99.8" font-family="Times,serif" font-size="14.00">TermsAndConditionsComponent</text>
</g>
<!-- TermsAndConditionsComponent&#45;&gt;AppModule -->
<g id="edge31" class="edge">
<title>TermsAndConditionsComponent&#45;&gt;AppModule</title>
<path fill="none" stroke="black" d="M522,-122.25C522,-145.02 522,-181 522,-181 522,-181 2892.22,-181 2892.22,-181"/>
<polygon fill="black" stroke="black" points="2892.22,-184.5 2902.22,-181 2892.22,-177.5 2892.22,-184.5"/>
</g>
<!-- VolunteerComponent -->
<g id="node32" class="node">
<title>VolunteerComponent</title>
<polygon fill="#ffffb3" stroke="black" points="402.81,-122 265.19,-122 265.19,-86 402.81,-86 402.81,-122"/>
<text text-anchor="middle" x="334" y="-99.8" font-family="Times,serif" font-size="14.00">VolunteerComponent</text>
</g>
<!-- VolunteerComponent&#45;&gt;AppModule -->
<g id="edge32" class="edge">
<title>VolunteerComponent&#45;&gt;AppModule</title>
<path fill="none" stroke="black" d="M334,-122.32C334,-145.66 334,-183 334,-183 334,-183 2892.21,-183 2892.21,-183"/>
<polygon fill="black" stroke="black" points="2892.21,-186.5 2902.21,-183 2892.21,-179.5 2892.21,-186.5"/>
</g>
<!-- WithdrawStartFundraiserComponent -->
<g id="node33" class="node">
<title>WithdrawStartFundraiserComponent</title>
<polygon fill="#ffffb3" stroke="black" points="247.62,-122 24.38,-122 24.38,-86 247.62,-86 247.62,-122"/>
<text text-anchor="middle" x="136" y="-99.8" font-family="Times,serif" font-size="14.00">WithdrawStartFundraiserComponent</text>
</g>
<!-- WithdrawStartFundraiserComponent&#45;&gt;AppModule -->
<g id="edge33" class="edge">
<title>WithdrawStartFundraiserComponent&#45;&gt;AppModule</title>
<path fill="none" stroke="black" d="M136,-122.38C136,-146.28 136,-185 136,-185 136,-185 2892.13,-185 2892.13,-185"/>
<polygon fill="black" stroke="black" points="2892.13,-188.5 2902.13,-185 2892.13,-181.5 2892.13,-188.5"/>
</g>
<!-- AppComponent  -->
<g id="node37" class="node">
<title>AppComponent </title>
<polygon fill="#80b1d3" stroke="black" points="2998.44,-252 2889.56,-252 2889.56,-216 2998.44,-216 2998.44,-252"/>
<text text-anchor="middle" x="2944" y="-229.8" font-family="Times,serif" font-size="14.00">AppComponent </text>
</g>
<!-- AppModule&#45;&gt;AppComponent  -->
<g id="edge36" class="edge">
<title>AppModule&#45;&gt;AppComponent </title>
<path fill="none" stroke="black" stroke-dasharray="1,5" d="M2944,-187.11C2944,-187.11 2944,-205.99 2944,-205.99"/>
<polygon fill="black" stroke="black" points="2940.5,-205.99 2944,-215.99 2947.5,-205.99 2940.5,-205.99"/>
</g>
<!-- AppRoutingModule -->
<g id="node35" class="node">
<title>AppRoutingModule</title>
<polygon fill="#8dd3c7" stroke="black" points="5656.27,-122 5653.27,-126 5632.27,-126 5629.27,-122 5527.73,-122 5527.73,-86 5656.27,-86 5656.27,-122"/>
<text text-anchor="middle" x="5592" y="-99.8" font-family="Times,serif" font-size="14.00">AppRoutingModule</text>
</g>
<!-- AppRoutingModule&#45;&gt;AppModule -->
<g id="edge34" class="edge">
<title>AppRoutingModule&#45;&gt;AppModule</title>
<path fill="none" stroke="black" d="M5592,-122.38C5592,-146.28 5592,-185 5592,-185 5592,-185 2995.86,-185 2995.86,-185"/>
<polygon fill="black" stroke="black" points="2995.86,-181.5 2985.86,-185 2995.86,-188.5 2995.86,-181.5"/>
</g>
<!-- CheckoutModule -->
<g id="node36" class="node">
<title>CheckoutModule</title>
<polygon fill="#8dd3c7" stroke="black" points="5509.71,-122 5506.71,-126 5485.71,-126 5482.71,-122 5396.29,-122 5396.29,-86 5509.71,-86 5509.71,-122"/>
<text text-anchor="middle" x="5453" y="-99.8" font-family="Times,serif" font-size="14.00">CheckoutModule</text>
</g>
<!-- CheckoutModule&#45;&gt;AppModule -->
<g id="edge35" class="edge">
<title>CheckoutModule&#45;&gt;AppModule</title>
<path fill="none" stroke="black" d="M5453,-122.32C5453,-145.66 5453,-183 5453,-183 5453,-183 2995.71,-183 2995.71,-183"/>
<polygon fill="black" stroke="black" points="2995.71,-179.5 2985.71,-183 2995.71,-186.5 2995.71,-179.5"/>
</g>
</g>
</svg>
