<?xml version="1.0" encoding="UTF-8" standalone="no"?>
<!DOCTYPE svg PUBLIC "-//W3C//DTD SVG 1.1//EN"
 "http://www.w3.org/Graphics/SVG/1.1/DTD/svg11.dtd">
<!-- Generated by graphviz version 2.47.0 (20210316.0004)
 -->
<!-- Title: dependencies Pages: 1 -->
<svg width="6024pt" height="290pt"
 viewBox="0.00 0.00 6024.00 290.00" xmlns="http://www.w3.org/2000/svg" xmlns:xlink="http://www.w3.org/1999/xlink">
<g id="graph0" class="graph" transform="scale(1 1) rotate(0) translate(4 286)">
<title>dependencies</title>
<polygon fill="white" stroke="transparent" points="-4,4 -4,-286 6020,-286 6020,4 -4,4"/>
<text text-anchor="start" x="2987.01" y="-42.4" font-family="Times-12" font-weight="bold" font-size="14.00">Legend</text>
<polygon fill="#ffffb3" stroke="transparent" points="2774,-10 2774,-30 2794,-30 2794,-10 2774,-10"/>
<text text-anchor="start" x="2797.63" y="-15.4" font-family="Times-12" font-size="14.00"> &#160;Declarations</text>
<polygon fill="#8dd3c7" stroke="transparent" points="2887,-10 2887,-30 2907,-30 2907,-10 2887,-10"/>
<text text-anchor="start" x="2910.73" y="-15.4" font-family="Times-12" font-size="14.00"> &#160;Module</text>
<polygon fill="#80b1d3" stroke="transparent" points="2973,-10 2973,-30 2993,-30 2993,-10 2973,-10"/>
<text text-anchor="start" x="2996.78" y="-15.4" font-family="Times-12" font-size="14.00"> &#160;Bootstrap</text>
<polygon fill="#fdb462" stroke="transparent" points="3070,-10 3070,-30 3090,-30 3090,-10 3070,-10"/>
<text text-anchor="start" x="3093.67" y="-15.4" font-family="Times-12" font-size="14.00"> &#160;Providers</text>
<polygon fill="#fb8072" stroke="transparent" points="3166,-10 3166,-30 3186,-30 3186,-10 3166,-10"/>
<text text-anchor="start" x="3189.73" y="-15.4" font-family="Times-12" font-size="14.00"> &#160;Exports</text>
<g id="clust1" class="cluster">
<title>cluster_AppModule</title>
<polygon fill="none" stroke="black" stroke-dasharray="1,5" points="8,-70 8,-274 5672,-274 5672,-70 8,-70"/>
</g>
<g id="clust2" class="cluster">
<title>cluster_AppModule_declarations</title>
<polygon fill="none" stroke="black" points="16,-78 16,-130 5380,-130 5380,-78 16,-78"/>
</g>
<g id="clust36" class="cluster">
<title>cluster_AppModule_imports</title>
<polygon fill="none" stroke="black" points="5388,-78 5388,-130 5664,-130 5664,-78 5388,-78"/>
</g>
<g id="clust38" class="cluster">
<title>cluster_AppModule_bootstrap</title>
<polygon fill="none" stroke="black" points="2882,-214 2882,-266 3006,-266 3006,-214 2882,-214"/>
</g>
<g id="clust46" class="cluster">
<title>cluster_CheckoutModule</title>
<polygon fill="none" stroke="black" stroke-dasharray="1,5" points="5680,-138 5680,-206 6008,-206 6008,-138 5680,-138"/>
</g>
<g id="clust47" class="cluster">
<title>cluster_CheckoutModule_declarations</title>
<polygon fill="none" stroke="black" points="5850,-146 5850,-198 6000,-198 6000,-146 5850,-146"/>
</g>
<g id="clust50" class="cluster">
<title>cluster_CheckoutModule_exports</title>
<polygon fill="none" stroke="black" points="5688,-146 5688,-198 5842,-198 5842,-146 5688,-146"/>
</g>
<!-- AboutUsComponent -->
<g id="node1" class="node">
<title>AboutUsComponent</title>
<polygon fill="#ffffb3" stroke="black" points="5371.88,-122 5240.12,-122 5240.12,-86 5371.88,-86 5371.88,-122"/>
<text text-anchor="middle" x="5306" y="-99.8" font-family="Times,serif" font-size="14.00">AboutUsComponent</text>
</g>
<!-- AppModule -->
<g id="node34" class="node">
<title>AppModule</title>
<polygon fill="#8dd3c7" stroke="black" points="2985.66,-190 2982.66,-194 2961.66,-194 2958.66,-190 2902.34,-190 2902.34,-154 2985.66,-154 2985.66,-190"/>
<text text-anchor="middle" x="2944" y="-167.8" font-family="Times,serif" font-size="14.00">AppModule</text>
</g>
<!-- AboutUsComponent&#45;&gt;AppModule -->
<g id="edge1" class="edge">
<title>AboutUsComponent&#45;&gt;AppModule</title>
<path fill="none" stroke="black" d="M5306,-122.32C5306,-145.66 5306,-183 5306,-183 5306,-183 2995.75,-183 2995.75,-183"/>
<polygon fill="black" stroke="black" points="2995.75,-179.5 2985.75,-183 2995.75,-186.5 2995.75,-179.5"/>
</g>
<!-- AmlPolicyComponent -->
<g id="node2" class="node">
<title>AmlPolicyComponent</title>
<polygon fill="#ffffb3" stroke="black" points="5222,-122 5080,-122 5080,-86 5222,-86 5222,-122"/>
<text text-anchor="middle" x="5151" y="-99.8" font-family="Times,serif" font-size="14.00">AmlPolicyComponent</text>
</g>
<!-- AmlPolicyComponent&#45;&gt;AppModule -->
<g id="edge2" class="edge">
<title>AmlPolicyComponent&#45;&gt;AppModule</title>
<path fill="none" stroke="black" d="M5151,-122.25C5151,-145.02 5151,-181 5151,-181 5151,-181 2996.12,-181 2996.12,-181"/>
<polygon fill="black" stroke="black" points="2996.12,-177.5 2986.12,-181 2996.12,-184.5 2996.12,-177.5"/>
</g>
<!-- AppComponent -->
<g id="node3" class="node">
<title>AppComponent</title>
<polygon fill="#ffffb3" stroke="black" points="5061.94,-122 4956.06,-122 4956.06,-86 5061.94,-86 5061.94,-122"/>
<text text-anchor="middle" x="5009" y="-99.8" font-family="Times,serif" font-size="14.00">AppComponent</text>
</g>
<!-- AppComponent&#45;&gt;AppModule -->
<g id="edge3" class="edge">
<title>AppComponent&#45;&gt;AppModule</title>
<path fill="none" stroke="black" d="M5009,-122.16C5009,-144.35 5009,-179 5009,-179 5009,-179 2995.72,-179 2995.72,-179"/>
<polygon fill="black" stroke="black" points="2995.72,-175.5 2985.72,-179 2995.72,-182.5 2995.72,-175.5"/>
</g>
<!-- CampaignComponent -->
<g id="node4" class="node">
<title>CampaignComponent</title>
<polygon fill="#ffffb3" stroke="black" points="4938.38,-122 4799.62,-122 4799.62,-86 4938.38,-86 4938.38,-122"/>
<text text-anchor="middle" x="4869" y="-99.8" font-family="Times,serif" font-size="14.00">CampaignComponent</text>
</g>
<!-- CampaignComponent&#45;&gt;AppModule -->
<g id="edge4" class="edge">
<title>CampaignComponent&#45;&gt;AppModule</title>
<path fill="none" stroke="black" d="M4869,-122.04C4869,-143.66 4869,-177 4869,-177 4869,-177 2996,-177 2996,-177"/>
<polygon fill="black" stroke="black" points="2996,-173.5 2986,-177 2996,-180.5 2996,-173.5"/>
</g>
<!-- CancellationPolicyComponent -->
<g id="node5" class="node">
<title>CancellationPolicyComponent</title>
<polygon fill="#ffffb3" stroke="black" points="4781.87,-122 4594.13,-122 4594.13,-86 4781.87,-86 4781.87,-122"/>
<text text-anchor="middle" x="4688" y="-99.8" font-family="Times,serif" font-size="14.00">CancellationPolicyComponent</text>
</g>
<!-- CancellationPolicyComponent&#45;&gt;AppModule -->
<g id="edge5" class="edge">
<title>CancellationPolicyComponent&#45;&gt;AppModule</title>
<path fill="none" stroke="black" d="M4688,-122.28C4688,-143.32 4688,-175 4688,-175 4688,-175 2995.82,-175 2995.82,-175"/>
<polygon fill="black" stroke="black" points="2995.82,-171.5 2985.82,-175 2995.82,-178.5 2995.82,-171.5"/>
</g>
<!-- ContactUsComponent -->
<g id="node6" class="node">
<title>ContactUsComponent</title>
<polygon fill="#ffffb3" stroke="black" points="4576.43,-122 4435.57,-122 4435.57,-86 4576.43,-86 4576.43,-122"/>
<text text-anchor="middle" x="4506" y="-99.8" font-family="Times,serif" font-size="14.00">ContactUsComponent</text>
</g>
<!-- ContactUsComponent&#45;&gt;AppModule -->
<g id="edge6" class="edge">
<title>ContactUsComponent&#45;&gt;AppModule</title>
<path fill="none" stroke="black" d="M4506,-122.13C4506,-142.57 4506,-173 4506,-173 4506,-173 2995.78,-173 2995.78,-173"/>
<polygon fill="black" stroke="black" points="2995.78,-169.5 2985.78,-173 2995.78,-176.5 2995.78,-169.5"/>
</g>
<!-- DemoComponent -->
<g id="node7" class="node">
<title>DemoComponent</title>
<polygon fill="#ffffb3" stroke="black" points="4417.55,-122 4302.45,-122 4302.45,-86 4417.55,-86 4417.55,-122"/>
<text text-anchor="middle" x="4360" y="-99.8" font-family="Times,serif" font-size="14.00">DemoComponent</text>
</g>
<!-- DemoComponent&#45;&gt;AppModule -->
<g id="edge7" class="edge">
<title>DemoComponent&#45;&gt;AppModule</title>
<path fill="none" stroke="black" d="M4360,-122.22C4360,-142.37 4360,-172 4360,-172 4360,-172 2995.99,-172 2995.99,-172"/>
<polygon fill="black" stroke="black" points="2995.99,-168.5 2985.99,-172 2995.99,-175.5 2995.99,-168.5"/>
</g>
<!-- DonateNowComponent -->
<g id="node8" class="node">
<title>DonateNowComponent</title>
<polygon fill="#ffffb3" stroke="black" points="4284.47,-122 4135.53,-122 4135.53,-86 4284.47,-86 4284.47,-122"/>
<text text-anchor="middle" x="4210" y="-99.8" font-family="Times,serif" font-size="14.00">DonateNowComponent</text>
</g>
<!-- DonateNowComponent&#45;&gt;AppModule -->
<g id="edge8" class="edge">
<title>DonateNowComponent&#45;&gt;AppModule</title>
<path fill="none" stroke="black" d="M4210,-122.03C4210,-141.58 4210,-170 4210,-170 4210,-170 2995.76,-170 2995.76,-170"/>
<polygon fill="black" stroke="black" points="2995.76,-166.5 2985.76,-170 2995.76,-173.5 2995.76,-166.5"/>
</g>
<!-- DonateUserComponent -->
<g id="node9" class="node">
<title>DonateUserComponent</title>
<polygon fill="#ffffb3" stroke="black" points="4117.19,-122 3968.81,-122 3968.81,-86 4117.19,-86 4117.19,-122"/>
<text text-anchor="middle" x="4043" y="-99.8" font-family="Times,serif" font-size="14.00">DonateUserComponent</text>
</g>
<!-- DonateUserComponent&#45;&gt;AppModule -->
<g id="edge9" class="edge">
<title>DonateUserComponent&#45;&gt;AppModule</title>
<path fill="none" stroke="black" d="M4043,-122.17C4043,-141.09 4043,-168 4043,-168 4043,-168 2995.74,-168 2995.74,-168"/>
<polygon fill="black" stroke="black" points="2995.74,-164.5 2985.74,-168 2995.74,-171.5 2995.74,-164.5"/>
</g>
<!-- DragDirective -->
<g id="node10" class="node">
<title>DragDirective</title>
<polygon fill="#ffffb3" stroke="black" points="3951.06,-122 3854.94,-122 3854.94,-86 3951.06,-86 3951.06,-122"/>
<text text-anchor="middle" x="3903" y="-99.8" font-family="Times,serif" font-size="14.00">DragDirective</text>
</g>
<!-- DragDirective&#45;&gt;AppModule -->
<g id="edge10" class="edge">
<title>DragDirective&#45;&gt;AppModule</title>
<path fill="none" stroke="black" d="M3903,-122.27C3903,-140.56 3903,-166 3903,-166 3903,-166 2995.82,-166 2995.82,-166"/>
<polygon fill="black" stroke="black" points="2995.82,-162.5 2985.82,-166 2995.82,-169.5 2995.82,-162.5"/>
</g>
<!-- EditFundraiserComponent -->
<g id="node11" class="node">
<title>EditFundraiserComponent</title>
<polygon fill="#ffffb3" stroke="black" points="3837.04,-122 3672.96,-122 3672.96,-86 3837.04,-86 3837.04,-122"/>
<text text-anchor="middle" x="3755" y="-99.8" font-family="Times,serif" font-size="14.00">EditFundraiserComponent</text>
</g>
<!-- EditFundraiserComponent&#45;&gt;AppModule -->
<g id="edge11" class="edge">
<title>EditFundraiserComponent&#45;&gt;AppModule</title>
<path fill="none" stroke="black" d="M3755,-122C3755,-139.68 3755,-164 3755,-164 3755,-164 2995.9,-164 2995.9,-164"/>
<polygon fill="black" stroke="black" points="2995.9,-160.5 2985.9,-164 2995.9,-167.5 2995.9,-160.5"/>
</g>
<!-- EditLoanComponent -->
<g id="node12" class="node">
<title>EditLoanComponent</title>
<polygon fill="#ffffb3" stroke="black" points="3654.93,-122 3521.07,-122 3521.07,-86 3654.93,-86 3654.93,-122"/>
<text text-anchor="middle" x="3588" y="-99.8" font-family="Times,serif" font-size="14.00">EditLoanComponent</text>
</g>
<!-- EditLoanComponent&#45;&gt;AppModule -->
<g id="edge12" class="edge">
<title>EditLoanComponent&#45;&gt;AppModule</title>
<path fill="none" stroke="black" d="M3588,-122.03C3588,-139.06 3588,-162 3588,-162 3588,-162 2995.76,-162 2995.76,-162"/>
<polygon fill="black" stroke="black" points="2995.76,-158.5 2985.76,-162 2995.76,-165.5 2995.76,-158.5"/>
</g>
<!-- FooterComponent -->
<g id="node13" class="node">
<title>FooterComponent</title>
<polygon fill="#ffffb3" stroke="black" points="3502.88,-122 3385.12,-122 3385.12,-86 3502.88,-86 3502.88,-122"/>
<text text-anchor="middle" x="3444" y="-99.8" font-family="Times,serif" font-size="14.00">FooterComponent</text>
</g>
<!-- FooterComponent&#45;&gt;AppModule -->
<g id="edge13" class="edge">
<title>FooterComponent&#45;&gt;AppModule</title>
<path fill="none" stroke="black" d="M3444,-122.03C3444,-138.4 3444,-160 3444,-160 3444,-160 2995.77,-160 2995.77,-160"/>
<polygon fill="black" stroke="black" points="2995.77,-156.5 2985.77,-160 2995.77,-163.5 2995.77,-156.5"/>
</g>
<!-- FundRaiserComponent -->
<g id="node14" class="node">
<title>FundRaiserComponent</title>
<polygon fill="#ffffb3" stroke="black" points="3366.88,-122 3221.12,-122 3221.12,-86 3366.88,-86 3366.88,-122"/>
<text text-anchor="middle" x="3294" y="-99.8" font-family="Times,serif" font-size="14.00">FundRaiserComponent</text>
</g>
<!-- FundRaiserComponent&#45;&gt;AppModule -->
<g id="edge14" class="edge">
<title>FundRaiserComponent&#45;&gt;AppModule</title>
<path fill="none" stroke="black" d="M3294,-122.28C3294,-137.95 3294,-158 3294,-158 3294,-158 2995.87,-158 2995.87,-158"/>
<polygon fill="black" stroke="black" points="2995.87,-154.5 2985.87,-158 2995.87,-161.5 2995.87,-154.5"/>
</g>
<!-- FundRaiserDetailComponent -->
<g id="node15" class="node">
<title>FundRaiserDetailComponent</title>
<polygon fill="#ffffb3" stroke="black" points="3203.08,-122 3022.92,-122 3022.92,-86 3203.08,-86 3203.08,-122"/>
<text text-anchor="middle" x="3113" y="-99.8" font-family="Times,serif" font-size="14.00">FundRaiserDetailComponent</text>
</g>
<!-- FundRaiserDetailComponent&#45;&gt;AppModule -->
<g id="edge15" class="edge">
<title>FundRaiserDetailComponent&#45;&gt;AppModule</title>
<path fill="none" stroke="black" d="M3113,-122.19C3113,-137.18 3113,-156 3113,-156 3113,-156 2995.78,-156 2995.78,-156"/>
<polygon fill="black" stroke="black" points="2995.78,-152.5 2985.78,-156 2995.78,-159.5 2995.78,-152.5"/>
</g>
<!-- HeaderComponent -->
<g id="node16" class="node">
<title>HeaderComponent</title>
<polygon fill="#ffffb3" stroke="black" points="3004.74,-122 2883.26,-122 2883.26,-86 3004.74,-86 3004.74,-122"/>
<text text-anchor="middle" x="2944" y="-99.8" font-family="Times,serif" font-size="14.00">HeaderComponent</text>
</g>
<!-- HeaderComponent&#45;&gt;AppModule -->
<g id="edge16" class="edge">
<title>HeaderComponent&#45;&gt;AppModule</title>
<path fill="none" stroke="black" d="M2944,-122.22C2944,-122.22 2944,-143.73 2944,-143.73"/>
<polygon fill="black" stroke="black" points="2940.5,-143.73 2944,-153.73 2947.5,-143.73 2940.5,-143.73"/>
</g>
<!-- HomeComponent -->
<g id="node17" class="node">
<title>HomeComponent</title>
<polygon fill="#ffffb3" stroke="black" points="2864.55,-122 2749.45,-122 2749.45,-86 2864.55,-86 2864.55,-122"/>
<text text-anchor="middle" x="2807" y="-99.8" font-family="Times,serif" font-size="14.00">HomeComponent</text>
</g>
<!-- HomeComponent&#45;&gt;AppModule -->
<g id="edge17" class="edge">
<title>HomeComponent&#45;&gt;AppModule</title>
<path fill="none" stroke="black" d="M2807,-122.19C2807,-137.18 2807,-156 2807,-156 2807,-156 2892.15,-156 2892.15,-156"/>
<polygon fill="black" stroke="black" points="2892.15,-159.5 2902.15,-156 2892.15,-152.5 2892.15,-159.5"/>
</g>
<!-- HowItWorksComponent -->
<g id="node18" class="node">
<title>HowItWorksComponent</title>
<polygon fill="#ffffb3" stroke="black" points="2731.42,-122 2576.58,-122 2576.58,-86 2731.42,-86 2731.42,-122"/>
<text text-anchor="middle" x="2654" y="-99.8" font-family="Times,serif" font-size="14.00">HowItWorksComponent</text>
</g>
<!-- HowItWorksComponent&#45;&gt;AppModule -->
<g id="edge18" class="edge">
<title>HowItWorksComponent&#45;&gt;AppModule</title>
<path fill="none" stroke="black" d="M2654,-122.28C2654,-137.95 2654,-158 2654,-158 2654,-158 2892.14,-158 2892.14,-158"/>
<polygon fill="black" stroke="black" points="2892.14,-161.5 2902.14,-158 2892.14,-154.5 2892.14,-161.5"/>
</g>
<!-- LendComponent -->
<g id="node19" class="node">
<title>LendComponent</title>
<polygon fill="#ffffb3" stroke="black" points="2559.1,-122 2448.9,-122 2448.9,-86 2559.1,-86 2559.1,-122"/>
<text text-anchor="middle" x="2504" y="-99.8" font-family="Times,serif" font-size="14.00">LendComponent</text>
</g>
<!-- LendComponent&#45;&gt;AppModule -->
<g id="edge19" class="edge">
<title>LendComponent&#45;&gt;AppModule</title>
<path fill="none" stroke="black" d="M2504,-122.03C2504,-138.4 2504,-160 2504,-160 2504,-160 2892.21,-160 2892.21,-160"/>
<polygon fill="black" stroke="black" points="2892.21,-163.5 2902.21,-160 2892.21,-156.5 2892.21,-163.5"/>
</g>
<!-- LoanDetailsComponent -->
<g id="node20" class="node">
<title>LoanDetailsComponent</title>
<polygon fill="#ffffb3" stroke="black" points="2430.75,-122 2281.25,-122 2281.25,-86 2430.75,-86 2430.75,-122"/>
<text text-anchor="middle" x="2356" y="-99.8" font-family="Times,serif" font-size="14.00">LoanDetailsComponent</text>
</g>
<!-- LoanDetailsComponent&#45;&gt;AppModule -->
<g id="edge20" class="edge">
<title>LoanDetailsComponent&#45;&gt;AppModule</title>
<path fill="none" stroke="black" d="M2356,-122.03C2356,-139.06 2356,-162 2356,-162 2356,-162 2892.18,-162 2892.18,-162"/>
<polygon fill="black" stroke="black" points="2892.18,-165.5 2902.18,-162 2892.18,-158.5 2892.18,-165.5"/>
</g>
<!-- OurCampaignsComponent -->
<g id="node21" class="node">
<title>OurCampaignsComponent</title>
<polygon fill="#ffffb3" stroke="black" points="2263.09,-122 2096.91,-122 2096.91,-86 2263.09,-86 2263.09,-122"/>
<text text-anchor="middle" x="2180" y="-99.8" font-family="Times,serif" font-size="14.00">OurCampaignsComponent</text>
</g>
<!-- OurCampaignsComponent&#45;&gt;AppModule -->
<g id="edge21" class="edge">
<title>OurCampaignsComponent&#45;&gt;AppModule</title>
<path fill="none" stroke="black" d="M2180,-122C2180,-139.68 2180,-164 2180,-164 2180,-164 2892.11,-164 2892.11,-164"/>
<polygon fill="black" stroke="black" points="2892.11,-167.5 2902.11,-164 2892.11,-160.5 2892.11,-167.5"/>
</g>
<!-- PageNotFoundComponent -->
<g id="node22" class="node">
<title>PageNotFoundComponent</title>
<polygon fill="#ffffb3" stroke="black" points="2078.82,-122 1913.18,-122 1913.18,-86 2078.82,-86 2078.82,-122"/>
<text text-anchor="middle" x="1996" y="-99.8" font-family="Times,serif" font-size="14.00">PageNotFoundComponent</text>
</g>
<!-- PageNotFoundComponent&#45;&gt;AppModule -->
<g id="edge22" class="edge">
<title>PageNotFoundComponent&#45;&gt;AppModule</title>
<path fill="none" stroke="black" d="M1996,-122.27C1996,-140.56 1996,-166 1996,-166 1996,-166 2892.04,-166 2892.04,-166"/>
<polygon fill="black" stroke="black" points="2892.04,-169.5 2902.04,-166 2892.04,-162.5 2892.04,-169.5"/>
</g>
<!-- PaytmComponent -->
<g id="node23" class="node">
<title>PaytmComponent</title>
<polygon fill="#ffffb3" stroke="black" points="1895.61,-122 1778.39,-122 1778.39,-86 1895.61,-86 1895.61,-122"/>
<text text-anchor="middle" x="1837" y="-99.8" font-family="Times,serif" font-size="14.00">PaytmComponent</text>
</g>
<!-- PaytmComponent&#45;&gt;AppModule -->
<g id="edge23" class="edge">
<title>PaytmComponent&#45;&gt;AppModule</title>
<path fill="none" stroke="black" d="M1837,-122.17C1837,-141.09 1837,-168 1837,-168 1837,-168 2892.29,-168 2892.29,-168"/>
<polygon fill="black" stroke="black" points="2892.29,-171.5 2902.29,-168 2892.29,-164.5 2892.29,-171.5"/>
</g>
<!-- PaytmPaymentComponent -->
<g id="node24" class="node">
<title>PaytmPaymentComponent</title>
<polygon fill="#ffffb3" stroke="black" points="1760.1,-122 1593.9,-122 1593.9,-86 1760.1,-86 1760.1,-122"/>
<text text-anchor="middle" x="1677" y="-99.8" font-family="Times,serif" font-size="14.00">PaytmPaymentComponent</text>
</g>
<!-- PaytmPaymentComponent&#45;&gt;AppModule -->
<g id="edge24" class="edge">
<title>PaytmPaymentComponent&#45;&gt;AppModule</title>
<path fill="none" stroke="black" d="M1677,-122.03C1677,-141.58 1677,-170 1677,-170 1677,-170 2892.21,-170 2892.21,-170"/>
<polygon fill="black" stroke="black" points="2892.21,-173.5 2902.21,-170 2892.21,-166.5 2892.21,-173.5"/>
</g>
<!-- PrivacyPolicyComponent -->
<g id="node25" class="node">
<title>PrivacyPolicyComponent</title>
<polygon fill="#ffffb3" stroke="black" points="1575.87,-122 1416.13,-122 1416.13,-86 1575.87,-86 1575.87,-122"/>
<text text-anchor="middle" x="1496" y="-99.8" font-family="Times,serif" font-size="14.00">PrivacyPolicyComponent</text>
</g>
<!-- PrivacyPolicyComponent&#45;&gt;AppModule -->
<g id="edge25" class="edge">
<title>PrivacyPolicyComponent&#45;&gt;AppModule</title>
<path fill="none" stroke="black" d="M1496,-122.22C1496,-142.37 1496,-172 1496,-172 1496,-172 2892.23,-172 2892.23,-172"/>
<polygon fill="black" stroke="black" points="2892.23,-175.5 2902.23,-172 2892.23,-168.5 2892.23,-175.5"/>
</g>
<!-- ProfileComponent -->
<g id="node26" class="node">
<title>ProfileComponent</title>
<polygon fill="#ffffb3" stroke="black" points="1397.93,-122 1278.07,-122 1278.07,-86 1397.93,-86 1397.93,-122"/>
<text text-anchor="middle" x="1338" y="-99.8" font-family="Times,serif" font-size="14.00">ProfileComponent</text>
</g>
<!-- ProfileComponent&#45;&gt;AppModule -->
<g id="edge26" class="edge">
<title>ProfileComponent&#45;&gt;AppModule</title>
<path fill="none" stroke="black" d="M1338,-122.03C1338,-142.77 1338,-174 1338,-174 1338,-174 2892.28,-174 2892.28,-174"/>
<polygon fill="black" stroke="black" points="2892.28,-177.5 2902.28,-174 2892.28,-170.5 2892.28,-177.5"/>
</g>
<!-- SearchListComponent -->
<g id="node27" class="node">
<title>SearchListComponent</title>
<polygon fill="#ffffb3" stroke="black" points="1260.7,-122 1119.3,-122 1119.3,-86 1260.7,-86 1260.7,-122"/>
<text text-anchor="middle" x="1190" y="-99.8" font-family="Times,serif" font-size="14.00">SearchListComponent</text>
</g>
<!-- SearchListComponent&#45;&gt;AppModule -->
<g id="edge27" class="edge">
<title>SearchListComponent&#45;&gt;AppModule</title>
<path fill="none" stroke="black" d="M1190,-122.17C1190,-143.5 1190,-176 1190,-176 1190,-176 2891.94,-176 2891.94,-176"/>
<polygon fill="black" stroke="black" points="2891.94,-179.5 2901.94,-176 2891.94,-172.5 2891.94,-179.5"/>
</g>
<!-- SignUpComponent -->
<g id="node28" class="node">
<title>SignUpComponent</title>
<polygon fill="#ffffb3" stroke="black" points="1101.11,-122 976.89,-122 976.89,-86 1101.11,-86 1101.11,-122"/>
<text text-anchor="middle" x="1039" y="-99.8" font-family="Times,serif" font-size="14.00">SignUpComponent</text>
</g>
<!-- SignUpComponent&#45;&gt;AppModule -->
<g id="edge28" class="edge">
<title>SignUpComponent&#45;&gt;AppModule</title>
<path fill="none" stroke="black" d="M1039,-122.29C1039,-144.21 1039,-178 1039,-178 1039,-178 2891.99,-178 2891.99,-178"/>
<polygon fill="black" stroke="black" points="2891.99,-181.5 2901.99,-178 2891.99,-174.5 2891.99,-181.5"/>
</g>
<!-- StartFundraiserComponent -->
<g id="node29" class="node">
<title>StartFundraiserComponent</title>
<polygon fill="#ffffb3" stroke="black" points="958.64,-122 791.36,-122 791.36,-86 958.64,-86 958.64,-122"/>
<text text-anchor="middle" x="875" y="-99.8" font-family="Times,serif" font-size="14.00">StartFundraiserComponent</text>
</g>
<!-- StartFundraiserComponent&#45;&gt;AppModule -->
<g id="edge29" class="edge">
<title>StartFundraiserComponent&#45;&gt;AppModule</title>
<path fill="none" stroke="black" d="M875,-122.01C875,-144.49 875,-180 875,-180 875,-180 2892.2,-180 2892.2,-180"/>
<polygon fill="black" stroke="black" points="2892.2,-183.5 2902.2,-180 2892.2,-176.5 2892.2,-183.5"/>
</g>
<!-- StatisticsComponent -->
<g id="node30" class="node">
<title>StatisticsComponent</title>
<polygon fill="#ffffb3" stroke="black" points="772.89,-122 641.11,-122 641.11,-86 772.89,-86 772.89,-122"/>
<text text-anchor="middle" x="707" y="-99.8" font-family="Times,serif" font-size="14.00">StatisticsComponent</text>
</g>
<!-- StatisticsComponent&#45;&gt;AppModule -->
<g id="edge30" class="edge">
<title>StatisticsComponent&#45;&gt;AppModule</title>
<path fill="none" stroke="black" d="M707,-122.09C707,-145.13 707,-182 707,-182 707,-182 2892.29,-182 2892.29,-182"/>
<polygon fill="black" stroke="black" points="2892.29,-185.5 2902.29,-182 2892.29,-178.5 2892.29,-185.5"/>
</g>
<!-- TermsAndConditionsComponent -->
<g id="node31" class="node">
<title>TermsAndConditionsComponent</title>
<polygon fill="#ffffb3" stroke="black" points="623.16,-122 420.84,-122 420.84,-86 623.16,-86 623.16,-122"/>
<text text-anchor="middle" x="522" y="-99.8" font-family="Times,serif" font-size="14.00">TermsAndConditionsComponent</text>
</g>
<!-- TermsAndConditionsComponent&#45;&gt;AppModule -->
<g id="edge31" class="edge">
<title>TermsAndConditionsComponent&#45;&gt;AppModule</title>
<path fill="none" stroke="black" d="M522,-122.15C522,-145.76 522,-184 522,-184 522,-184 2892.22,-184 2892.22,-184"/>
<polygon fill="black" stroke="black" points="2892.22,-187.5 2902.22,-184 2892.22,-180.5 2892.22,-187.5"/>
</g>
<!-- VolunteerComponent -->
<g id="node32" class="node">
<title>VolunteerComponent</title>
<polygon fill="#ffffb3" stroke="black" points="402.81,-122 265.19,-122 265.19,-86 402.81,-86 402.81,-122"/>
<text text-anchor="middle" x="334" y="-99.8" font-family="Times,serif" font-size="14.00">VolunteerComponent</text>
</g>
<!-- VolunteerComponent&#45;&gt;AppModule -->
<g id="edge32" class="edge">
<title>VolunteerComponent&#45;&gt;AppModule</title>
<path fill="none" stroke="black" d="M334,-122.2C334,-146.36 334,-186 334,-186 334,-186 2892.21,-186 2892.21,-186"/>
<polygon fill="black" stroke="black" points="2892.21,-189.5 2902.21,-186 2892.21,-182.5 2892.21,-189.5"/>
</g>
<!-- WithdrawStartFundraiserComponent -->
<g id="node33" class="node">
<title>WithdrawStartFundraiserComponent</title>
<polygon fill="#ffffb3" stroke="black" points="247.62,-122 24.38,-122 24.38,-86 247.62,-86 247.62,-122"/>
<text text-anchor="middle" x="136" y="-99.8" font-family="Times,serif" font-size="14.00">WithdrawStartFundraiserComponent</text>
</g>
<!-- WithdrawStartFundraiserComponent&#45;&gt;AppModule -->
<g id="edge33" class="edge">
<title>WithdrawStartFundraiserComponent&#45;&gt;AppModule</title>
<path fill="none" stroke="black" d="M136,-122.23C136,-146.93 136,-188 136,-188 136,-188 2892.13,-188 2892.13,-188"/>
<polygon fill="black" stroke="black" points="2892.13,-191.5 2902.13,-188 2892.13,-184.5 2892.13,-191.5"/>
</g>
<!-- AppComponent  -->
<g id="node37" class="node">
<title>AppComponent </title>
<polygon fill="#80b1d3" stroke="black" points="2998.44,-258 2889.56,-258 2889.56,-222 2998.44,-222 2998.44,-258"/>
<text text-anchor="middle" x="2944" y="-235.8" font-family="Times,serif" font-size="14.00">AppComponent </text>
</g>
<!-- AppModule&#45;&gt;AppComponent  -->
<g id="edge36" class="edge">
<title>AppModule&#45;&gt;AppComponent </title>
<path fill="none" stroke="black" stroke-dasharray="1,5" d="M2944,-190.22C2944,-190.22 2944,-211.73 2944,-211.73"/>
<polygon fill="black" stroke="black" points="2940.5,-211.73 2944,-221.73 2947.5,-211.73 2940.5,-211.73"/>
</g>
<!-- AppRoutingModule -->
<g id="node35" class="node">
<title>AppRoutingModule</title>
<polygon fill="#8dd3c7" stroke="black" points="5524.27,-122 5521.27,-126 5500.27,-126 5497.27,-122 5395.73,-122 5395.73,-86 5524.27,-86 5524.27,-122"/>
<text text-anchor="middle" x="5460" y="-99.8" font-family="Times,serif" font-size="14.00">AppRoutingModule</text>
</g>
<!-- AppRoutingModule&#45;&gt;AppModule -->
<g id="edge34" class="edge">
<title>AppRoutingModule&#45;&gt;AppModule</title>
<path fill="none" stroke="black" d="M5460,-122.38C5460,-146.28 5460,-185 5460,-185 5460,-185 2995.83,-185 2995.83,-185"/>
<polygon fill="black" stroke="black" points="2995.83,-181.5 2985.83,-185 2995.83,-188.5 2995.83,-181.5"/>
</g>
<!-- CheckoutModule -->
<g id="node36" class="node">
<title>CheckoutModule</title>
<polygon fill="#8dd3c7" stroke="black" points="5655.71,-122 5652.71,-126 5631.71,-126 5628.71,-122 5542.29,-122 5542.29,-86 5655.71,-86 5655.71,-122"/>
<text text-anchor="middle" x="5599" y="-99.8" font-family="Times,serif" font-size="14.00">CheckoutModule</text>
</g>
<!-- CheckoutModule&#45;&gt;AppModule -->
<g id="edge35" class="edge">
<title>CheckoutModule&#45;&gt;AppModule</title>
<path fill="none" stroke="black" d="M5580.13,-122.01C5580.13,-146.42 5580.13,-187 5580.13,-187 5580.13,-187 2995.67,-187 2995.67,-187"/>
<polygon fill="black" stroke="black" points="2995.67,-183.5 2985.67,-187 2995.67,-190.5 2995.67,-183.5"/>
</g>
<!-- CheckoutComponent  -->
<g id="node39" class="node">
<title>CheckoutComponent </title>
<polygon fill="#fb8072" stroke="black" points="5834.49,-190 5695.51,-190 5695.51,-154 5834.49,-154 5834.49,-190"/>
<text text-anchor="middle" x="5765" y="-167.8" font-family="Times,serif" font-size="14.00">CheckoutComponent </text>
</g>
<!-- CheckoutModule&#45;&gt;CheckoutComponent  -->
<g id="edge38" class="edge">
<title>CheckoutModule&#45;&gt;CheckoutComponent </title>
<path fill="none" stroke="black" stroke-dasharray="5,2" d="M5617.87,-122.03C5617.87,-146.98 5617.87,-189 5617.87,-189 5617.87,-189 5685.74,-189 5685.74,-189"/>
<polygon fill="black" stroke="black" points="5685.74,-192.5 5695.74,-189 5685.74,-185.5 5685.74,-192.5"/>
</g>
<!-- CheckoutComponent -->
<g id="node38" class="node">
<title>CheckoutComponent</title>
<polygon fill="#ffffb3" stroke="black" points="5992.49,-190 5857.51,-190 5857.51,-154 5992.49,-154 5992.49,-190"/>
<text text-anchor="middle" x="5925" y="-167.8" font-family="Times,serif" font-size="14.00">CheckoutComponent</text>
</g>
<!-- CheckoutComponent&#45;&gt;CheckoutModule -->
<g id="edge37" class="edge">
<title>CheckoutComponent&#45;&gt;CheckoutModule</title>
<path fill="none" stroke="black" d="M5925,-153.78C5925,-133.63 5925,-104 5925,-104 5925,-104 5665.78,-104 5665.78,-104"/>
<polygon fill="black" stroke="black" points="5665.78,-100.5 5655.78,-104 5665.78,-107.5 5665.78,-100.5"/>
</g>
</g>
</svg>
